<svg xmlns="http://www.w3.org/2000/svg" viewBox="0 0 512 512" fill="none">
  <g fill="#000000">
    <!-- Left M serif foot -->
    <path d="M92 356H172V338C150 336 138 324 138 300V175L235 349H248L339 176V300C339 324 327 336 305 338V356H402V338C381 336 369 324 369 300V157C369 133 381 121 402 119V101H303L240 274L171 101H92V119C113 121 125 133 125 157V300C125 324 113 336 92 338V356Z"/>
    
    <!-- Shared stem / P body -->
    <path d="M289 356H395V338C373 336 361 324 361 300V253H397C461 253 502 223 502 175C502 127 462 101 395 101H289V119C310 121 322 133 322 157V300C322 324 310 336 289 338V356ZM361 127H394C434 127 458 144 458 177C458 210 434 227 394 227H361V127Z"/>
  </g>
</svg>